<?xml version="1.0" encoding="utf-8" standalone="no"?>
<!DOCTYPE svg PUBLIC "-//W3C//DTD SVG 1.1//EN"
  "http://www.w3.org/Graphics/SVG/1.1/DTD/svg11.dtd">
<svg xmlns:xlink="http://www.w3.org/1999/xlink" width="460.8pt" height="345.6pt" viewBox="0 0 460.8 345.6" xmlns="http://www.w3.org/2000/svg" version="1.1">
 <metadata>
  <rdf:RDF xmlns:dc="http://purl.org/dc/elements/1.1/" xmlns:cc="http://creativecommons.org/ns#" xmlns:rdf="http://www.w3.org/1999/02/22-rdf-syntax-ns#">
   <cc:Work>
    <dc:type rdf:resource="http://purl.org/dc/dcmitype/StillImage"/>
    <dc:date>2025-05-11T17:07:11.558654</dc:date>
    <dc:format>image/svg+xml</dc:format>
    <dc:creator>
     <cc:Agent>
      <dc:title>Matplotlib v3.10.3, https://matplotlib.org/</dc:title>
     </cc:Agent>
    </dc:creator>
   </cc:Work>
  </rdf:RDF>
 </metadata>
 <defs>
  <style type="text/css">*{stroke-linejoin: round; stroke-linecap: butt}</style>
 </defs>
 <g id="figure_1">
  <g id="patch_1">
   <path d="M 0 345.6 
L 460.8 345.6 
L 460.8 0 
L 0 0 
z
" style="fill: #ffffff"/>
  </g>
  <g id="axes_1">
   <g id="patch_2">
    <path d="M 57.6 307.584 
L 414.72 307.584 
L 414.72 41.472 
L 57.6 41.472 
z
" style="fill: #ffffff"/>
   </g>
   <g id="FillBetweenPolyCollection_1">
    <defs>
     <path id="m354782898d" d="M 117.12 -75.867312 
L 117.014292 -75.867312 
L 116.973008 -77.989902 
L 116.919983 -80.112491 
L 116.853383 -82.235081 
L 116.771429 -84.35767 
L 116.672407 -86.48026 
L 116.554628 -88.60285 
L 116.416349 -90.725439 
L 116.255667 -92.848029 
L 116.070431 -94.970618 
L 115.858202 -97.093208 
L 115.616294 -99.215798 
L 115.341918 -101.338387 
L 115.032392 -103.460977 
L 114.685375 -105.583566 
L 114.299053 -107.706156 
L 113.872232 -109.828746 
L 113.404311 -111.951335 
L 112.895177 -114.073925 
L 112.345137 -116.196514 
L 111.754994 -118.319104 
L 111.126399 -120.441694 
L 110.462485 -122.564283 
L 109.768695 -124.686873 
L 109.053588 -126.809462 
L 108.329272 -128.932052 
L 107.611177 -131.054641 
L 106.916919 -133.177231 
L 106.264256 -135.299821 
L 105.668327 -137.42241 
L 105.138649 -139.545 
L 104.676393 -141.667589 
L 104.272515 -143.790179 
L 103.907134 -145.912769 
L 103.550357 -148.035358 
L 103.164472 -150.157948 
L 102.707303 -152.280537 
L 102.136377 -154.403127 
L 101.413585 -156.525717 
L 100.509998 -158.648306 
L 99.410539 -160.770896 
L 98.118064 -162.893485 
L 96.65636 -165.016075 
L 95.07137 -167.138665 
L 93.430023 -169.261254 
L 91.816202 -171.383844 
L 90.323853 -173.506433 
L 89.047797 -175.629023 
L 88.073456 -177.751613 
L 87.467108 -179.874202 
L 87.268384 -181.996792 
L 87.486411 -184.119381 
L 88.100253 -186.241971 
L 89.063445 -188.364561 
L 90.311516 -190.48715 
L 91.770852 -192.60974 
L 93.367063 -194.732329 
L 95.03138 -196.854919 
L 96.704208 -198.977508 
L 98.335788 -201.100098 
L 99.884596 -203.222688 
L 101.314549 -205.345277 
L 102.59222 -207.467867 
L 103.68503 -209.590456 
L 104.561052 -211.713046 
L 105.190546 -213.835636 
L 105.548998 -215.958225 
L 105.621114 -218.080815 
L 105.405039 -220.203404 
L 104.916029 -222.325994 
L 104.18882 -224.448584 
L 103.278022 -226.571173 
L 102.256096 -228.693763 
L 101.208768 -230.816352 
L 100.228135 -232.938942 
L 99.404177 -235.061532 
L 98.815787 -237.184121 
L 98.522648 -239.306711 
L 98.559284 -241.4293 
L 98.932289 -243.55189 
L 99.621174 -245.67448 
L 100.582634 -247.797069 
L 101.757354 -249.919659 
L 103.078089 -252.042248 
L 104.477597 -254.164838 
L 105.895184 -256.287428 
L 107.281068 -258.410017 
L 108.598303 -260.532607 
L 109.822518 -262.655196 
L 110.9401 -264.777786 
L 111.945591 -266.900375 
L 112.839025 -269.022965 
L 113.623705 -271.145555 
L 114.304687 -273.268144 
L 114.887948 -275.390734 
L 115.380095 -277.513323 
L 115.788347 -279.635913 
L 116.120593 -281.758503 
L 116.385353 -283.881092 
L 116.5916 -286.003682 
L 117.12 -286.003682 
L 117.12 -286.003682 
L 117.12 -283.881092 
L 117.12 -281.758503 
L 117.12 -279.635913 
L 117.12 -277.513323 
L 117.12 -275.390734 
L 117.12 -273.268144 
L 117.12 -271.145555 
L 117.12 -269.022965 
L 117.12 -266.900375 
L 117.12 -264.777786 
L 117.12 -262.655196 
L 117.12 -260.532607 
L 117.12 -258.410017 
L 117.12 -256.287428 
L 117.12 -254.164838 
L 117.12 -252.042248 
L 117.12 -249.919659 
L 117.12 -247.797069 
L 117.12 -245.67448 
L 117.12 -243.55189 
L 117.12 -241.4293 
L 117.12 -239.306711 
L 117.12 -237.184121 
L 117.12 -235.061532 
L 117.12 -232.938942 
L 117.12 -230.816352 
L 117.12 -228.693763 
L 117.12 -226.571173 
L 117.12 -224.448584 
L 117.12 -222.325994 
L 117.12 -220.203404 
L 117.12 -218.080815 
L 117.12 -215.958225 
L 117.12 -213.835636 
L 117.12 -211.713046 
L 117.12 -209.590456 
L 117.12 -207.467867 
L 117.12 -205.345277 
L 117.12 -203.222688 
L 117.12 -201.100098 
L 117.12 -198.977508 
L 117.12 -196.854919 
L 117.12 -194.732329 
L 117.12 -192.60974 
L 117.12 -190.48715 
L 117.12 -188.364561 
L 117.12 -186.241971 
L 117.12 -184.119381 
L 117.12 -181.996792 
L 117.12 -179.874202 
L 117.12 -177.751613 
L 117.12 -175.629023 
L 117.12 -173.506433 
L 117.12 -171.383844 
L 117.12 -169.261254 
L 117.12 -167.138665 
L 117.12 -165.016075 
L 117.12 -162.893485 
L 117.12 -160.770896 
L 117.12 -158.648306 
L 117.12 -156.525717 
L 117.12 -154.403127 
L 117.12 -152.280537 
L 117.12 -150.157948 
L 117.12 -148.035358 
L 117.12 -145.912769 
L 117.12 -143.790179 
L 117.12 -141.667589 
L 117.12 -139.545 
L 117.12 -137.42241 
L 117.12 -135.299821 
L 117.12 -133.177231 
L 117.12 -131.054641 
L 117.12 -128.932052 
L 117.12 -126.809462 
L 117.12 -124.686873 
L 117.12 -122.564283 
L 117.12 -120.441694 
L 117.12 -118.319104 
L 117.12 -116.196514 
L 117.12 -114.073925 
L 117.12 -111.951335 
L 117.12 -109.828746 
L 117.12 -107.706156 
L 117.12 -105.583566 
L 117.12 -103.460977 
L 117.12 -101.338387 
L 117.12 -99.215798 
L 117.12 -97.093208 
L 117.12 -94.970618 
L 117.12 -92.848029 
L 117.12 -90.725439 
L 117.12 -88.60285 
L 117.12 -86.48026 
L 117.12 -84.35767 
L 117.12 -82.235081 
L 117.12 -80.112491 
L 117.12 -77.989902 
L 117.12 -75.867312 
z
" style="stroke: #595959; stroke-width: 1.25"/>
    </defs>
    <g clip-path="url(#pa8c15f5672)">
     <use xlink:href="#m354782898d" x="0" y="345.6" style="fill: #72b6a1; stroke: #595959; stroke-width: 1.25"/>
    </g>
   </g>
   <g id="FillBetweenPolyCollection_2">
    <defs>
     <path id="m3701b8c49a" d="M 117.258834 -50.112 
L 117.12 -50.112 
L 117.12 -52.555636 
L 117.12 -54.999273 
L 117.12 -57.442909 
L 117.12 -59.886545 
L 117.12 -62.330182 
L 117.12 -64.773818 
L 117.12 -67.217455 
L 117.12 -69.661091 
L 117.12 -72.104727 
L 117.12 -74.548364 
L 117.12 -76.992 
L 117.12 -79.435636 
L 117.12 -81.879273 
L 117.12 -84.322909 
L 117.12 -86.766545 
L 117.12 -89.210182 
L 117.12 -91.653818 
L 117.12 -94.097455 
L 117.12 -96.541091 
L 117.12 -98.984727 
L 117.12 -101.428364 
L 117.12 -103.872 
L 117.12 -106.315636 
L 117.12 -108.759273 
L 117.12 -111.202909 
L 117.12 -113.646545 
L 117.12 -116.090182 
L 117.12 -118.533818 
L 117.12 -120.977455 
L 117.12 -123.421091 
L 117.12 -125.864727 
L 117.12 -128.308364 
L 117.12 -130.752 
L 117.12 -133.195636 
L 117.12 -135.639273 
L 117.12 -138.082909 
L 117.12 -140.526545 
L 117.12 -142.970182 
L 117.12 -145.413818 
L 117.12 -147.857455 
L 117.12 -150.301091 
L 117.12 -152.744727 
L 117.12 -155.188364 
L 117.12 -157.632 
L 117.12 -160.075636 
L 117.12 -162.519273 
L 117.12 -164.962909 
L 117.12 -167.406545 
L 117.12 -169.850182 
L 117.12 -172.293818 
L 117.12 -174.737455 
L 117.12 -177.181091 
L 117.12 -179.624727 
L 117.12 -182.068364 
L 117.12 -184.512 
L 117.12 -186.955636 
L 117.12 -189.399273 
L 117.12 -191.842909 
L 117.12 -194.286545 
L 117.12 -196.730182 
L 117.12 -199.173818 
L 117.12 -201.617455 
L 117.12 -204.061091 
L 117.12 -206.504727 
L 117.12 -208.948364 
L 117.12 -211.392 
L 117.12 -213.835636 
L 117.12 -216.279273 
L 117.12 -218.722909 
L 117.12 -221.166545 
L 117.12 -223.610182 
L 117.12 -226.053818 
L 117.12 -228.497455 
L 117.12 -230.941091 
L 117.12 -233.384727 
L 117.12 -235.828364 
L 117.12 -238.272 
L 117.12 -240.715636 
L 117.12 -243.159273 
L 117.12 -245.602909 
L 117.12 -248.046545 
L 117.12 -250.490182 
L 117.12 -252.933818 
L 117.12 -255.377455 
L 117.12 -257.821091 
L 117.12 -260.264727 
L 117.12 -262.708364 
L 117.12 -265.152 
L 117.12 -267.595636 
L 117.12 -270.039273 
L 117.12 -272.482909 
L 117.12 -274.926545 
L 117.12 -277.370182 
L 117.12 -279.813818 
L 117.12 -282.257455 
L 117.12 -284.701091 
L 117.12 -287.144727 
L 117.12 -289.588364 
L 117.12 -292.032 
L 117.676637 -292.032 
L 117.676637 -292.032 
L 117.865696 -289.588364 
L 118.09632 -287.144727 
L 118.369356 -284.701091 
L 118.682708 -282.257455 
L 119.030809 -279.813818 
L 119.404418 -277.370182 
L 119.790894 -274.926545 
L 120.174991 -272.482909 
L 120.540194 -270.039273 
L 120.870484 -267.595636 
L 121.152342 -265.152 
L 121.376741 -262.708364 
L 121.540791 -260.264727 
L 121.648774 -257.821091 
L 121.71233 -255.377455 
L 121.749677 -252.933818 
L 121.783904 -250.490182 
L 121.840499 -248.046545 
L 121.94442 -245.602909 
L 122.1171 -243.159273 
L 122.373772 -240.715636 
L 122.721506 -238.272 
L 123.15821 -235.828364 
L 123.672728 -233.384727 
L 124.245995 -230.941091 
L 124.853065 -228.497455 
L 125.465702 -226.053818 
L 126.05518 -223.610182 
L 126.594924 -221.166545 
L 127.062712 -218.722909 
L 127.442257 -216.279273 
L 127.724121 -213.835636 
L 127.906027 -211.392 
L 127.992706 -208.948364 
L 127.995447 -206.504727 
L 127.93147 -204.061091 
L 127.823198 -201.617455 
L 127.697403 -199.173818 
L 127.584163 -196.730182 
L 127.515533 -194.286545 
L 127.52387 -191.842909 
L 127.63981 -189.399273 
L 127.890011 -186.955636 
L 128.294858 -184.512 
L 128.866404 -182.068364 
L 129.606832 -179.624727 
L 130.507709 -177.181091 
L 131.550177 -174.737455 
L 132.706096 -172.293818 
L 133.94003 -169.850182 
L 135.211787 -167.406545 
L 136.479197 -164.962909 
L 137.700762 -162.519273 
L 138.837893 -160.075636 
L 139.856568 -157.632 
L 140.728373 -155.188364 
L 141.431009 -152.744727 
L 141.948438 -150.301091 
L 142.270823 -147.857455 
L 142.394392 -145.413818 
L 142.321266 -142.970182 
L 142.059199 -140.526545 
L 141.621151 -138.082909 
L 141.024601 -135.639273 
L 140.290547 -133.195636 
L 139.442243 -130.752 
L 138.503772 -128.308364 
L 137.498616 -125.864727 
L 136.448392 -123.421091 
L 135.3719 -120.977455 
L 134.284553 -118.533818 
L 133.198226 -116.090182 
L 132.121472 -113.646545 
L 131.060027 -111.202909 
L 130.017515 -108.759273 
L 128.996243 -106.315636 
L 127.99799 -103.872 
L 127.024689 -101.428364 
L 126.078944 -98.984727 
L 125.164308 -96.541091 
L 124.285312 -94.097455 
L 123.447248 -91.653818 
L 122.655761 -89.210182 
L 121.916329 -86.766545 
L 121.233716 -84.322909 
L 120.611511 -81.879273 
L 120.051796 -79.435636 
L 119.555002 -76.992 
L 119.119946 -74.548364 
L 118.74401 -72.104727 
L 118.423426 -69.661091 
L 118.153609 -67.217455 
L 117.929479 -64.773818 
L 117.745754 -62.330182 
L 117.597182 -59.886545 
L 117.478717 -57.442909 
L 117.38564 -54.999273 
L 117.313634 -52.555636 
L 117.258834 -50.112 
z
" style="stroke: #595959; stroke-width: 1.25"/>
    </defs>
    <g clip-path="url(#pa8c15f5672)">
     <use xlink:href="#m3701b8c49a" x="0" y="345.6" style="fill: #e99675; stroke: #595959; stroke-width: 1.25"/>
    </g>
   </g>
   <g id="FillBetweenPolyCollection_3">
    <defs>
     <path id="m6df3f13c21" d="M 236.16 -62.925519 
L 236.005137 -62.925519 
L 235.947251 -64.512508 
L 235.875092 -66.099498 
L 235.787887 -67.686488 
L 235.685675 -69.273478 
L 235.569376 -70.860467 
L 235.440686 -72.447457 
L 235.301764 -74.034447 
L 235.154722 -75.621436 
L 235.000982 -77.208426 
L 234.840612 -78.795416 
L 234.67181 -80.382405 
L 234.490691 -81.969395 
L 234.291511 -83.556385 
L 234.06737 -85.143375 
L 233.811325 -86.730364 
L 233.517696 -88.317354 
L 233.183277 -89.904344 
L 232.808074 -91.491333 
L 232.395275 -93.078323 
L 231.950272 -94.665313 
L 231.478803 -96.252303 
L 230.984526 -97.839292 
L 230.466575 -99.426282 
L 229.917796 -101.013272 
L 229.324307 -102.600261 
L 228.666838 -104.187251 
L 227.923887 -105.774241 
L 227.076282 -107.361231 
L 226.112224 -108.94822 
L 225.031606 -110.53521 
L 223.848338 -112.1222 
L 222.589679 -113.709189 
L 221.29221 -115.296179 
L 219.994859 -116.883169 
L 218.73028 -118.470158 
L 217.516505 -120.057148 
L 216.351074 -121.644138 
L 215.209538 -123.231128 
L 214.04943 -124.818117 
L 212.819573 -126.405107 
L 211.473222 -127.992097 
L 209.982389 -129.579086 
L 208.350061 -131.166076 
L 206.617136 -132.753066 
L 204.861812 -134.340056 
L 203.190749 -135.927045 
L 201.723184 -137.514035 
L 200.570921 -139.101025 
L 199.818286 -140.688014 
L 199.506376 -142.275004 
L 199.625144 -143.861994 
L 200.115224 -145.448983 
L 200.879241 -147.035973 
L 201.800211 -148.622963 
L 202.763039 -150.209953 
L 203.674471 -151.796942 
L 204.47728 -153.383932 
L 205.155871 -154.970922 
L 205.732569 -156.557911 
L 206.255966 -158.144901 
L 206.784516 -159.731891 
L 207.36948 -161.318881 
L 208.041255 -162.90587 
L 208.802123 -164.49286 
L 209.626718 -166.07985 
L 210.4696 -167.666839 
L 211.277645 -169.253829 
L 212.003882 -170.840819 
L 212.619278 -172.427808 
L 213.119612 -174.014798 
L 213.525972 -175.601788 
L 213.879003 -177.188778 
L 214.228617 -178.775767 
L 214.621852 -180.362757 
L 215.091968 -181.949747 
L 215.651364 -183.536736 
L 216.289918 -185.123726 
L 216.97892 -186.710716 
L 217.679439 -188.297706 
L 218.352946 -189.884695 
L 218.971568 -191.471685 
L 219.525569 -193.058675 
L 220.026403 -194.645664 
L 220.504813 -196.232654 
L 221.004589 -197.819644 
L 221.573547 -199.406634 
L 222.253804 -200.993623 
L 223.07343 -202.580613 
L 224.04107 -204.167603 
L 225.144399 -205.754592 
L 226.352345 -207.341582 
L 227.620302 -208.928572 
L 228.89703 -210.515561 
L 230.131803 -212.102551 
L 231.280537 -213.689541 
L 232.310044 -215.276531 
L 233.200053 -216.86352 
L 233.943108 -218.45051 
L 234.542825 -220.0375 
L 236.16 -220.0375 
L 236.16 -220.0375 
L 236.16 -218.45051 
L 236.16 -216.86352 
L 236.16 -215.276531 
L 236.16 -213.689541 
L 236.16 -212.102551 
L 236.16 -210.515561 
L 236.16 -208.928572 
L 236.16 -207.341582 
L 236.16 -205.754592 
L 236.16 -204.167603 
L 236.16 -202.580613 
L 236.16 -200.993623 
L 236.16 -199.406634 
L 236.16 -197.819644 
L 236.16 -196.232654 
L 236.16 -194.645664 
L 236.16 -193.058675 
L 236.16 -191.471685 
L 236.16 -189.884695 
L 236.16 -188.297706 
L 236.16 -186.710716 
L 236.16 -185.123726 
L 236.16 -183.536736 
L 236.16 -181.949747 
L 236.16 -180.362757 
L 236.16 -178.775767 
L 236.16 -177.188778 
L 236.16 -175.601788 
L 236.16 -174.014798 
L 236.16 -172.427808 
L 236.16 -170.840819 
L 236.16 -169.253829 
L 236.16 -167.666839 
L 236.16 -166.07985 
L 236.16 -164.49286 
L 236.16 -162.90587 
L 236.16 -161.318881 
L 236.16 -159.731891 
L 236.16 -158.144901 
L 236.16 -156.557911 
L 236.16 -154.970922 
L 236.16 -153.383932 
L 236.16 -151.796942 
L 236.16 -150.209953 
L 236.16 -148.622963 
L 236.16 -147.035973 
L 236.16 -145.448983 
L 236.16 -143.861994 
L 236.16 -142.275004 
L 236.16 -140.688014 
L 236.16 -139.101025 
L 236.16 -137.514035 
L 236.16 -135.927045 
L 236.16 -134.340056 
L 236.16 -132.753066 
L 236.16 -131.166076 
L 236.16 -129.579086 
L 236.16 -127.992097 
L 236.16 -126.405107 
L 236.16 -124.818117 
L 236.16 -123.231128 
L 236.16 -121.644138 
L 236.16 -120.057148 
L 236.16 -118.470158 
L 236.16 -116.883169 
L 236.16 -115.296179 
L 236.16 -113.709189 
L 236.16 -112.1222 
L 236.16 -110.53521 
L 236.16 -108.94822 
L 236.16 -107.361231 
L 236.16 -105.774241 
L 236.16 -104.187251 
L 236.16 -102.600261 
L 236.16 -101.013272 
L 236.16 -99.426282 
L 236.16 -97.839292 
L 236.16 -96.252303 
L 236.16 -94.665313 
L 236.16 -93.078323 
L 236.16 -91.491333 
L 236.16 -89.904344 
L 236.16 -88.317354 
L 236.16 -86.730364 
L 236.16 -85.143375 
L 236.16 -83.556385 
L 236.16 -81.969395 
L 236.16 -80.382405 
L 236.16 -78.795416 
L 236.16 -77.208426 
L 236.16 -75.621436 
L 236.16 -74.034447 
L 236.16 -72.447457 
L 236.16 -70.860467 
L 236.16 -69.273478 
L 236.16 -67.686488 
L 236.16 -66.099498 
L 236.16 -64.512508 
L 236.16 -62.925519 
z
" style="stroke: #595959; stroke-width: 1.25"/>
    </defs>
    <g clip-path="url(#pa8c15f5672)">
     <use xlink:href="#m6df3f13c21" x="0" y="345.6" style="fill: #72b6a1; stroke: #595959; stroke-width: 1.25"/>
    </g>
   </g>
   <g id="FillBetweenPolyCollection_4">
    <defs>
     <path id="m800e8dbdcb" d="M 238.49295 -80.639345 
L 236.16 -80.639345 
L 236.16 -81.86848 
L 236.16 -83.097614 
L 236.16 -84.326749 
L 236.16 -85.555884 
L 236.16 -86.785018 
L 236.16 -88.014153 
L 236.16 -89.243288 
L 236.16 -90.472422 
L 236.16 -91.701557 
L 236.16 -92.930692 
L 236.16 -94.159826 
L 236.16 -95.388961 
L 236.16 -96.618095 
L 236.16 -97.84723 
L 236.16 -99.076365 
L 236.16 -100.305499 
L 236.16 -101.534634 
L 236.16 -102.763769 
L 236.16 -103.992903 
L 236.16 -105.222038 
L 236.16 -106.451172 
L 236.16 -107.680307 
L 236.16 -108.909442 
L 236.16 -110.138576 
L 236.16 -111.367711 
L 236.16 -112.596846 
L 236.16 -113.82598 
L 236.16 -115.055115 
L 236.16 -116.284249 
L 236.16 -117.513384 
L 236.16 -118.742519 
L 236.16 -119.971653 
L 236.16 -121.200788 
L 236.16 -122.429923 
L 236.16 -123.659057 
L 236.16 -124.888192 
L 236.16 -126.117326 
L 236.16 -127.346461 
L 236.16 -128.575596 
L 236.16 -129.80473 
L 236.16 -131.033865 
L 236.16 -132.263 
L 236.16 -133.492134 
L 236.16 -134.721269 
L 236.16 -135.950403 
L 236.16 -137.179538 
L 236.16 -138.408673 
L 236.16 -139.637807 
L 236.16 -140.866942 
L 236.16 -142.096077 
L 236.16 -143.325211 
L 236.16 -144.554346 
L 236.16 -145.78348 
L 236.16 -147.012615 
L 236.16 -148.24175 
L 236.16 -149.470884 
L 236.16 -150.700019 
L 236.16 -151.929154 
L 236.16 -153.158288 
L 236.16 -154.387423 
L 236.16 -155.616557 
L 236.16 -156.845692 
L 236.16 -158.074827 
L 236.16 -159.303961 
L 236.16 -160.533096 
L 236.16 -161.762231 
L 236.16 -162.991365 
L 236.16 -164.2205 
L 236.16 -165.449634 
L 236.16 -166.678769 
L 236.16 -167.907904 
L 236.16 -169.137038 
L 236.16 -170.366173 
L 236.16 -171.595308 
L 236.16 -172.824442 
L 236.16 -174.053577 
L 236.16 -175.282711 
L 236.16 -176.511846 
L 236.16 -177.740981 
L 236.16 -178.970115 
L 236.16 -180.19925 
L 236.16 -181.428385 
L 236.16 -182.657519 
L 236.16 -183.886654 
L 236.16 -185.115788 
L 236.16 -186.344923 
L 236.16 -187.574058 
L 236.16 -188.803192 
L 236.16 -190.032327 
L 236.16 -191.261462 
L 236.16 -192.490596 
L 236.16 -193.719731 
L 236.16 -194.948865 
L 236.16 -196.178 
L 236.16 -197.407135 
L 236.16 -198.636269 
L 236.16 -199.865404 
L 236.16 -201.094539 
L 236.16 -202.323673 
L 238.163355 -202.323673 
L 238.163355 -202.323673 
L 238.666743 -201.094539 
L 239.256106 -199.865404 
L 239.934832 -198.636269 
L 240.703404 -197.407135 
L 241.558828 -196.178 
L 242.494201 -194.948865 
L 243.498501 -193.719731 
L 244.556649 -192.490596 
L 245.649888 -191.261462 
L 246.756491 -190.032327 
L 247.85278 -188.803192 
L 248.914402 -187.574058 
L 249.917773 -186.344923 
L 250.841579 -185.115788 
L 251.6682 -183.886654 
L 252.384932 -182.657519 
L 252.984873 -181.428385 
L 253.467406 -180.19925 
L 253.838208 -178.970115 
L 254.10881 -177.740981 
L 254.295747 -176.511846 
L 254.419406 -175.282711 
L 254.502705 -174.053577 
L 254.569754 -172.824442 
L 254.644632 -171.595308 
L 254.750416 -170.366173 
L 254.90851 -169.137038 
L 255.138318 -167.907904 
L 255.45719 -166.678769 
L 255.880569 -165.449634 
L 256.422193 -164.2205 
L 257.094203 -162.991365 
L 257.90702 -161.762231 
L 258.868885 -160.533096 
L 259.985018 -159.303961 
L 261.256431 -158.074827 
L 262.67849 -156.845692 
L 264.239423 -155.616557 
L 265.918979 -154.387423 
L 267.687507 -153.158288 
L 269.505674 -151.929154 
L 271.32501 -150.700019 
L 273.089384 -149.470884 
L 274.737392 -148.24175 
L 276.205548 -147.012615 
L 277.432049 -145.78348 
L 278.360784 -144.554346 
L 278.945242 -143.325211 
L 279.15192 -142.096077 
L 278.962911 -140.866942 
L 278.377398 -139.637807 
L 277.411908 -138.408673 
L 276.099311 -137.179538 
L 274.486659 -135.950403 
L 272.632109 -134.721269 
L 270.601218 -133.492134 
L 268.462983 -132.263 
L 266.285971 -131.033865 
L 264.134865 -129.80473 
L 262.067658 -128.575596 
L 260.133659 -127.346461 
L 258.372332 -126.117326 
L 256.812937 -124.888192 
L 255.474824 -123.659057 
L 254.368193 -122.429923 
L 253.495134 -121.200788 
L 252.850733 -119.971653 
L 252.42411 -118.742519 
L 252.199277 -117.513384 
L 252.155798 -116.284249 
L 252.269272 -115.055115 
L 252.51171 -113.82598 
L 252.851926 -112.596846 
L 253.256038 -111.367711 
L 253.688171 -110.138576 
L 254.111437 -108.909442 
L 254.489165 -107.680307 
L 254.786375 -106.451172 
L 254.97136 -105.222038 
L 255.017285 -103.992903 
L 254.903621 -102.763769 
L 254.617285 -101.534634 
L 254.153363 -100.305499 
L 253.515315 -99.076365 
L 252.714648 -97.84723 
L 251.770061 -96.618095 
L 250.706144 -95.388961 
L 249.551742 -94.159826 
L 248.33813 -92.930692 
L 247.09715 -91.701557 
L 245.859456 -90.472422 
L 244.653007 -89.243288 
L 243.501871 -88.014153 
L 242.425434 -86.785018 
L 241.437992 -85.555884 
L 240.548725 -84.326749 
L 239.761996 -83.097614 
L 239.077892 -81.86848 
L 238.49295 -80.639345 
z
" style="stroke: #595959; stroke-width: 1.25"/>
    </defs>
    <g clip-path="url(#pa8c15f5672)">
     <use xlink:href="#m800e8dbdcb" x="0" y="345.6" style="fill: #e99675; stroke: #595959; stroke-width: 1.25"/>
    </g>
   </g>
   <g id="FillBetweenPolyCollection_5">
    <defs>
     <path id="m4fd8e6f5b4" d="M 355.2 -63.629544 
L 354.943065 -63.629544 
L 354.844012 -65.202311 
L 354.719905 -66.775077 
L 354.569401 -68.347844 
L 354.392646 -69.920611 
L 354.19134 -71.493378 
L 353.968436 -73.066145 
L 353.727405 -74.638912 
L 353.471088 -76.211679 
L 353.200307 -77.784446 
L 352.91249 -79.357213 
L 352.600691 -80.92998 
L 352.253359 -82.502747 
L 351.855131 -84.075514 
L 351.388715 -85.648281 
L 350.837621 -87.221048 
L 350.189202 -88.793815 
L 349.43721 -90.366582 
L 348.582967 -91.939349 
L 347.634442 -93.512116 
L 346.60286 -95.084883 
L 345.497151 -96.65765 
L 344.317241 -98.230417 
L 343.04781 -99.803184 
L 341.654547 -101.375951 
L 340.08476 -102.948718 
L 338.273595 -104.521485 
L 336.15593 -106.094252 
L 333.682525 -107.667019 
L 330.837606 -109.239786 
L 327.653987 -110.812553 
L 324.22164 -112.38532 
L 320.686382 -113.958087 
L 317.23711 -115.530854 
L 314.082477 -117.103621 
L 311.420504 -118.676388 
L 309.406719 -120.249155 
L 308.127406 -121.821922 
L 307.584 -123.394689 
L 307.692667 -124.967456 
L 308.29992 -126.540223 
L 309.211597 -128.11299 
L 310.229439 -129.685757 
L 311.187687 -131.258524 
L 311.981994 -132.831291 
L 312.584696 -134.404058 
L 313.043539 -135.976825 
L 313.464676 -137.549592 
L 313.984247 -139.122359 
L 314.735196 -140.695126 
L 315.816777 -142.267893 
L 317.273193 -143.84066 
L 319.085451 -145.413427 
L 321.177271 -146.986194 
L 323.432758 -148.558961 
L 325.721067 -150.131728 
L 327.922165 -151.704495 
L 329.948083 -153.277262 
L 331.755537 -154.850029 
L 333.348153 -156.422796 
L 334.768941 -157.995563 
L 336.085711 -159.56833 
L 337.37333 -161.141097 
L 338.696851 -162.713863 
L 340.098843 -164.28663 
L 341.592843 -165.859397 
L 343.163302 -167.432164 
L 344.770933 -169.004931 
L 346.361496 -170.577698 
L 347.87566 -172.150465 
L 349.257861 -173.723232 
L 350.462729 -175.295999 
L 351.458475 -176.868766 
L 352.227445 -178.441533 
L 352.764599 -180.0143 
L 353.074975 -181.587067 
L 353.171112 -183.159834 
L 353.071179 -184.732601 
L 352.798116 -186.305368 
L 352.379684 -187.878135 
L 351.848979 -189.450902 
L 351.244785 -191.023669 
L 350.611144 -192.596436 
L 349.995716 -194.169203 
L 349.446827 -195.74197 
L 349.00947 -197.314737 
L 348.720862 -198.887504 
L 348.606358 -200.460271 
L 348.676536 -202.033038 
L 348.926069 -203.605805 
L 349.334677 -205.178572 
L 349.870014 -206.751339 
L 350.491985 -208.324106 
L 351.157731 -209.896873 
L 351.82645 -211.46964 
L 352.463326 -213.042407 
L 353.042093 -214.615174 
L 353.546074 -216.187941 
L 353.967823 -217.760708 
L 354.307715 -219.333475 
L 355.2 -219.333475 
L 355.2 -219.333475 
L 355.2 -217.760708 
L 355.2 -216.187941 
L 355.2 -214.615174 
L 355.2 -213.042407 
L 355.2 -211.46964 
L 355.2 -209.896873 
L 355.2 -208.324106 
L 355.2 -206.751339 
L 355.2 -205.178572 
L 355.2 -203.605805 
L 355.2 -202.033038 
L 355.2 -200.460271 
L 355.2 -198.887504 
L 355.2 -197.314737 
L 355.2 -195.74197 
L 355.2 -194.169203 
L 355.2 -192.596436 
L 355.2 -191.023669 
L 355.2 -189.450902 
L 355.2 -187.878135 
L 355.2 -186.305368 
L 355.2 -184.732601 
L 355.2 -183.159834 
L 355.2 -181.587067 
L 355.2 -180.0143 
L 355.2 -178.441533 
L 355.2 -176.868766 
L 355.2 -175.295999 
L 355.2 -173.723232 
L 355.2 -172.150465 
L 355.2 -170.577698 
L 355.2 -169.004931 
L 355.2 -167.432164 
L 355.2 -165.859397 
L 355.2 -164.28663 
L 355.2 -162.713863 
L 355.2 -161.141097 
L 355.2 -159.56833 
L 355.2 -157.995563 
L 355.2 -156.422796 
L 355.2 -154.850029 
L 355.2 -153.277262 
L 355.2 -151.704495 
L 355.2 -150.131728 
L 355.2 -148.558961 
L 355.2 -146.986194 
L 355.2 -145.413427 
L 355.2 -143.84066 
L 355.2 -142.267893 
L 355.2 -140.695126 
L 355.2 -139.122359 
L 355.2 -137.549592 
L 355.2 -135.976825 
L 355.2 -134.404058 
L 355.2 -132.831291 
L 355.2 -131.258524 
L 355.2 -129.685757 
L 355.2 -128.11299 
L 355.2 -126.540223 
L 355.2 -124.967456 
L 355.2 -123.394689 
L 355.2 -121.821922 
L 355.2 -120.249155 
L 355.2 -118.676388 
L 355.2 -117.103621 
L 355.2 -115.530854 
L 355.2 -113.958087 
L 355.2 -112.38532 
L 355.2 -110.812553 
L 355.2 -109.239786 
L 355.2 -107.667019 
L 355.2 -106.094252 
L 355.2 -104.521485 
L 355.2 -102.948718 
L 355.2 -101.375951 
L 355.2 -99.803184 
L 355.2 -98.230417 
L 355.2 -96.65765 
L 355.2 -95.084883 
L 355.2 -93.512116 
L 355.2 -91.939349 
L 355.2 -90.366582 
L 355.2 -88.793815 
L 355.2 -87.221048 
L 355.2 -85.648281 
L 355.2 -84.075514 
L 355.2 -82.502747 
L 355.2 -80.92998 
L 355.2 -79.357213 
L 355.2 -77.784446 
L 355.2 -76.211679 
L 355.2 -74.638912 
L 355.2 -73.066145 
L 355.2 -71.493378 
L 355.2 -69.920611 
L 355.2 -68.347844 
L 355.2 -66.775077 
L 355.2 -65.202311 
L 355.2 -63.629544 
z
" style="stroke: #595959; stroke-width: 1.25"/>
    </defs>
    <g clip-path="url(#pa8c15f5672)">
     <use xlink:href="#m4fd8e6f5b4" x="0" y="345.6" style="fill: #72b6a1; stroke: #595959; stroke-width: 1.25"/>
    </g>
   </g>
   <g id="FillBetweenPolyCollection_6">
    <defs>
     <path id="mfcfcdadfb9" d="M 356.324803 -63.210521 
L 355.2 -63.210521 
L 355.2 -64.592491 
L 355.2 -65.97446 
L 355.2 -67.35643 
L 355.2 -68.738399 
L 355.2 -70.120369 
L 355.2 -71.502338 
L 355.2 -72.884308 
L 355.2 -74.266277 
L 355.2 -75.648247 
L 355.2 -77.030216 
L 355.2 -78.412186 
L 355.2 -79.794155 
L 355.2 -81.176125 
L 355.2 -82.558094 
L 355.2 -83.940064 
L 355.2 -85.322033 
L 355.2 -86.704003 
L 355.2 -88.085972 
L 355.2 -89.467942 
L 355.2 -90.849911 
L 355.2 -92.231881 
L 355.2 -93.613851 
L 355.2 -94.99582 
L 355.2 -96.37779 
L 355.2 -97.759759 
L 355.2 -99.141729 
L 355.2 -100.523698 
L 355.2 -101.905668 
L 355.2 -103.287637 
L 355.2 -104.669607 
L 355.2 -106.051576 
L 355.2 -107.433546 
L 355.2 -108.815515 
L 355.2 -110.197485 
L 355.2 -111.579454 
L 355.2 -112.961424 
L 355.2 -114.343393 
L 355.2 -115.725363 
L 355.2 -117.107332 
L 355.2 -118.489302 
L 355.2 -119.871271 
L 355.2 -121.253241 
L 355.2 -122.63521 
L 355.2 -124.01718 
L 355.2 -125.399149 
L 355.2 -126.781119 
L 355.2 -128.163088 
L 355.2 -129.545058 
L 355.2 -130.927028 
L 355.2 -132.308997 
L 355.2 -133.690967 
L 355.2 -135.072936 
L 355.2 -136.454906 
L 355.2 -137.836875 
L 355.2 -139.218845 
L 355.2 -140.600814 
L 355.2 -141.982784 
L 355.2 -143.364753 
L 355.2 -144.746723 
L 355.2 -146.128692 
L 355.2 -147.510662 
L 355.2 -148.892631 
L 355.2 -150.274601 
L 355.2 -151.65657 
L 355.2 -153.03854 
L 355.2 -154.420509 
L 355.2 -155.802479 
L 355.2 -157.184448 
L 355.2 -158.566418 
L 355.2 -159.948387 
L 355.2 -161.330357 
L 355.2 -162.712326 
L 355.2 -164.094296 
L 355.2 -165.476265 
L 355.2 -166.858235 
L 355.2 -168.240205 
L 355.2 -169.622174 
L 355.2 -171.004144 
L 355.2 -172.386113 
L 355.2 -173.768083 
L 355.2 -175.150052 
L 355.2 -176.532022 
L 355.2 -177.913991 
L 355.2 -179.295961 
L 355.2 -180.67793 
L 355.2 -182.0599 
L 355.2 -183.441869 
L 355.2 -184.823839 
L 355.2 -186.205808 
L 355.2 -187.587778 
L 355.2 -188.969747 
L 355.2 -190.351717 
L 355.2 -191.733686 
L 355.2 -193.115656 
L 355.2 -194.497625 
L 355.2 -195.879595 
L 355.2 -197.261564 
L 355.2 -198.643534 
L 355.2 -200.025503 
L 356.037008 -200.025503 
L 356.037008 -200.025503 
L 356.307068 -198.643534 
L 356.634163 -197.261564 
L 357.019829 -195.879595 
L 357.462086 -194.497625 
L 357.954777 -193.115656 
L 358.487244 -191.733686 
L 359.044491 -190.351717 
L 359.607898 -188.969747 
L 360.156498 -187.587778 
L 360.668738 -186.205808 
L 361.124533 -184.823839 
L 361.507361 -183.441869 
L 361.806095 -182.0599 
L 362.016277 -180.67793 
L 362.140607 -179.295961 
L 362.188517 -177.913991 
L 362.17485 -176.532022 
L 362.117824 -175.150052 
L 362.036552 -173.768083 
L 361.948526 -172.386113 
L 361.867437 -171.004144 
L 361.801677 -169.622174 
L 361.753768 -168.240205 
L 361.720759 -166.858235 
L 361.695528 -165.476265 
L 361.668717 -164.094296 
L 361.630962 -162.712326 
L 361.575041 -161.330357 
L 361.497574 -159.948387 
L 361.400044 -158.566418 
L 361.289034 -157.184448 
L 361.175737 -155.802479 
L 361.074957 -154.420509 
L 361.003886 -153.03854 
L 360.981013 -151.65657 
L 361.025441 -150.274601 
L 361.156778 -148.892631 
L 361.395614 -147.510662 
L 361.764384 -146.128692 
L 362.288277 -144.746723 
L 362.995708 -143.364753 
L 363.917891 -141.982784 
L 365.087117 -140.600814 
L 366.533573 -139.218845 
L 368.280812 -137.836875 
L 370.340346 -136.454906 
L 372.706146 -135.072936 
L 375.350051 -133.690967 
L 378.219186 -132.308997 
L 381.236309 -130.927028 
L 384.303698 -129.545058 
L 387.310617 -128.163088 
L 390.143765 -126.781119 
L 392.699485 -125.399149 
L 394.896003 -124.01718 
L 396.683728 -122.63521 
L 398.051756 -121.253241 
L 399.029164 -119.871271 
L 399.68048 -118.489302 
L 400.095635 -117.107332 
L 400.375715 -115.725363 
L 400.616601 -114.343393 
L 400.893084 -112.961424 
L 401.246055 -111.579454 
L 401.674947 -110.197485 
L 402.136756 -108.815515 
L 402.551899 -107.433546 
L 402.816 -106.051576 
L 402.815702 -104.669607 
L 402.445962 -103.287637 
L 401.626062 -101.905668 
L 400.311862 -100.523698 
L 398.502505 -99.141729 
L 396.240795 -97.759759 
L 393.607484 -96.37779 
L 390.710732 -94.99582 
L 387.672612 -93.613851 
L 384.614915 -92.231881 
L 381.64637 -90.849911 
L 378.852973 -89.467942 
L 376.29244 -88.085972 
L 373.99304 -86.704003 
L 371.956357 -85.322033 
L 370.162969 -83.940064 
L 368.579763 -82.558094 
L 367.167555 -81.176125 
L 365.887855 -79.794155 
L 364.707965 -78.412186 
L 363.604022 -77.030216 
L 362.561967 -75.648247 
L 361.576771 -74.266277 
L 360.65043 -72.884308 
L 359.789329 -71.502338 
L 359.00154 -70.120369 
L 358.294487 -68.738399 
L 357.673244 -67.35643 
L 357.139592 -65.97446 
L 356.691769 -64.592491 
L 356.324803 -63.210521 
z
" style="stroke: #595959; stroke-width: 1.25"/>
    </defs>
    <g clip-path="url(#pa8c15f5672)">
     <use xlink:href="#mfcfcdadfb9" x="0" y="345.6" style="fill: #e99675; stroke: #595959; stroke-width: 1.25"/>
    </g>
   </g>
   <g id="patch_3">
    <path d="M 117.12 283.026466 
L 117.12 283.026466 
L 117.12 283.026466 
L 117.12 283.026466 
z
" clip-path="url(#pa8c15f5672)" style="fill: #72b6a1; stroke: #595959; stroke-width: 1.25; stroke-linejoin: miter"/>
   </g>
   <g id="patch_4">
    <path d="M 117.12 283.026466 
L 117.12 283.026466 
L 117.12 283.026466 
L 117.12 283.026466 
z
" clip-path="url(#pa8c15f5672)" style="fill: #e99675; stroke: #595959; stroke-width: 1.25; stroke-linejoin: miter"/>
   </g>
   <g id="matplotlib.axis_1">
    <g id="xtick_1">
     <g id="line2d_1">
      <defs>
       <path id="mdaf6d26849" d="M 0 0 
L 0 3.5 
" style="stroke: #000000; stroke-width: 0.8"/>
      </defs>
      <g>
       <use xlink:href="#mdaf6d26849" x="117.12" y="307.584" style="stroke: #000000; stroke-width: 0.8"/>
      </g>
     </g>
     <g id="text_1">
      <!-- day3 -->
      <g transform="translate(104.741094 322.182437) scale(0.1 -0.1)">
       <defs>
        <path id="DejaVuSans-64" d="M 2906 2969 
L 2906 4863 
L 3481 4863 
L 3481 0 
L 2906 0 
L 2906 525 
Q 2725 213 2448 61 
Q 2172 -91 1784 -91 
Q 1150 -91 751 415 
Q 353 922 353 1747 
Q 353 2572 751 3078 
Q 1150 3584 1784 3584 
Q 2172 3584 2448 3432 
Q 2725 3281 2906 2969 
z
M 947 1747 
Q 947 1113 1208 752 
Q 1469 391 1925 391 
Q 2381 391 2643 752 
Q 2906 1113 2906 1747 
Q 2906 2381 2643 2742 
Q 2381 3103 1925 3103 
Q 1469 3103 1208 2742 
Q 947 2381 947 1747 
z
" transform="scale(0.015625)"/>
        <path id="DejaVuSans-61" d="M 2194 1759 
Q 1497 1759 1228 1600 
Q 959 1441 959 1056 
Q 959 750 1161 570 
Q 1363 391 1709 391 
Q 2188 391 2477 730 
Q 2766 1069 2766 1631 
L 2766 1759 
L 2194 1759 
z
M 3341 1997 
L 3341 0 
L 2766 0 
L 2766 531 
Q 2569 213 2275 61 
Q 1981 -91 1556 -91 
Q 1019 -91 701 211 
Q 384 513 384 1019 
Q 384 1609 779 1909 
Q 1175 2209 1959 2209 
L 2766 2209 
L 2766 2266 
Q 2766 2663 2505 2880 
Q 2244 3097 1772 3097 
Q 1472 3097 1187 3025 
Q 903 2953 641 2809 
L 641 3341 
Q 956 3463 1253 3523 
Q 1550 3584 1831 3584 
Q 2591 3584 2966 3190 
Q 3341 2797 3341 1997 
z
" transform="scale(0.015625)"/>
        <path id="DejaVuSans-79" d="M 2059 -325 
Q 1816 -950 1584 -1140 
Q 1353 -1331 966 -1331 
L 506 -1331 
L 506 -850 
L 844 -850 
Q 1081 -850 1212 -737 
Q 1344 -625 1503 -206 
L 1606 56 
L 191 3500 
L 800 3500 
L 1894 763 
L 2988 3500 
L 3597 3500 
L 2059 -325 
z
" transform="scale(0.015625)"/>
        <path id="DejaVuSans-33" d="M 2597 2516 
Q 3050 2419 3304 2112 
Q 3559 1806 3559 1356 
Q 3559 666 3084 287 
Q 2609 -91 1734 -91 
Q 1441 -91 1130 -33 
Q 819 25 488 141 
L 488 750 
Q 750 597 1062 519 
Q 1375 441 1716 441 
Q 2309 441 2620 675 
Q 2931 909 2931 1356 
Q 2931 1769 2642 2001 
Q 2353 2234 1838 2234 
L 1294 2234 
L 1294 2753 
L 1863 2753 
Q 2328 2753 2575 2939 
Q 2822 3125 2822 3475 
Q 2822 3834 2567 4026 
Q 2313 4219 1838 4219 
Q 1578 4219 1281 4162 
Q 984 4106 628 3988 
L 628 4550 
Q 988 4650 1302 4700 
Q 1616 4750 1894 4750 
Q 2613 4750 3031 4423 
Q 3450 4097 3450 3541 
Q 3450 3153 3228 2886 
Q 3006 2619 2597 2516 
z
" transform="scale(0.015625)"/>
       </defs>
       <use xlink:href="#DejaVuSans-64"/>
       <use xlink:href="#DejaVuSans-61" transform="translate(63.476562 0)"/>
       <use xlink:href="#DejaVuSans-79" transform="translate(124.755859 0)"/>
       <use xlink:href="#DejaVuSans-33" transform="translate(183.935547 0)"/>
      </g>
     </g>
    </g>
    <g id="xtick_2">
     <g id="line2d_2">
      <g>
       <use xlink:href="#mdaf6d26849" x="236.16" y="307.584" style="stroke: #000000; stroke-width: 0.8"/>
      </g>
     </g>
     <g id="text_2">
      <!-- day5 -->
      <g transform="translate(223.781094 322.182437) scale(0.1 -0.1)">
       <defs>
        <path id="DejaVuSans-35" d="M 691 4666 
L 3169 4666 
L 3169 4134 
L 1269 4134 
L 1269 2991 
Q 1406 3038 1543 3061 
Q 1681 3084 1819 3084 
Q 2600 3084 3056 2656 
Q 3513 2228 3513 1497 
Q 3513 744 3044 326 
Q 2575 -91 1722 -91 
Q 1428 -91 1123 -41 
Q 819 9 494 109 
L 494 744 
Q 775 591 1075 516 
Q 1375 441 1709 441 
Q 2250 441 2565 725 
Q 2881 1009 2881 1497 
Q 2881 1984 2565 2268 
Q 2250 2553 1709 2553 
Q 1456 2553 1204 2497 
Q 953 2441 691 2322 
L 691 4666 
z
" transform="scale(0.015625)"/>
       </defs>
       <use xlink:href="#DejaVuSans-64"/>
       <use xlink:href="#DejaVuSans-61" transform="translate(63.476562 0)"/>
       <use xlink:href="#DejaVuSans-79" transform="translate(124.755859 0)"/>
       <use xlink:href="#DejaVuSans-35" transform="translate(183.935547 0)"/>
      </g>
     </g>
    </g>
    <g id="xtick_3">
     <g id="line2d_3">
      <g>
       <use xlink:href="#mdaf6d26849" x="355.2" y="307.584" style="stroke: #000000; stroke-width: 0.8"/>
      </g>
     </g>
     <g id="text_3">
      <!-- day7 -->
      <g transform="translate(342.821094 322.182437) scale(0.1 -0.1)">
       <defs>
        <path id="DejaVuSans-37" d="M 525 4666 
L 3525 4666 
L 3525 4397 
L 1831 0 
L 1172 0 
L 2766 4134 
L 525 4134 
L 525 4666 
z
" transform="scale(0.015625)"/>
       </defs>
       <use xlink:href="#DejaVuSans-64"/>
       <use xlink:href="#DejaVuSans-61" transform="translate(63.476562 0)"/>
       <use xlink:href="#DejaVuSans-79" transform="translate(124.755859 0)"/>
       <use xlink:href="#DejaVuSans-37" transform="translate(183.935547 0)"/>
      </g>
     </g>
    </g>
    <g id="text_4">
     <!-- day -->
     <g transform="translate(226.962344 335.860562) scale(0.1 -0.1)">
      <use xlink:href="#DejaVuSans-64"/>
      <use xlink:href="#DejaVuSans-61" transform="translate(63.476562 0)"/>
      <use xlink:href="#DejaVuSans-79" transform="translate(124.755859 0)"/>
     </g>
    </g>
   </g>
   <g id="matplotlib.axis_2">
    <g id="ytick_1">
     <g id="line2d_4">
      <defs>
       <path id="m339593afac" d="M 0 0 
L -3.5 0 
" style="stroke: #000000; stroke-width: 0.8"/>
      </defs>
      <g>
       <use xlink:href="#m339593afac" x="57.6" y="283.026466" style="stroke: #000000; stroke-width: 0.8"/>
      </g>
     </g>
     <g id="text_5">
      <!-- 0 -->
      <g transform="translate(44.2375 286.825685) scale(0.1 -0.1)">
       <defs>
        <path id="DejaVuSans-30" d="M 2034 4250 
Q 1547 4250 1301 3770 
Q 1056 3291 1056 2328 
Q 1056 1369 1301 889 
Q 1547 409 2034 409 
Q 2525 409 2770 889 
Q 3016 1369 3016 2328 
Q 3016 3291 2770 3770 
Q 2525 4250 2034 4250 
z
M 2034 4750 
Q 2819 4750 3233 4129 
Q 3647 3509 3647 2328 
Q 3647 1150 3233 529 
Q 2819 -91 2034 -91 
Q 1250 -91 836 529 
Q 422 1150 422 2328 
Q 422 3509 836 4129 
Q 1250 4750 2034 4750 
z
" transform="scale(0.015625)"/>
       </defs>
       <use xlink:href="#DejaVuSans-30"/>
      </g>
     </g>
    </g>
    <g id="ytick_2">
     <g id="line2d_5">
      <g>
       <use xlink:href="#m339593afac" x="57.6" y="243.572479" style="stroke: #000000; stroke-width: 0.8"/>
      </g>
     </g>
     <g id="text_6">
      <!-- 2 -->
      <g transform="translate(44.2375 247.371697) scale(0.1 -0.1)">
       <defs>
        <path id="DejaVuSans-32" d="M 1228 531 
L 3431 531 
L 3431 0 
L 469 0 
L 469 531 
Q 828 903 1448 1529 
Q 2069 2156 2228 2338 
Q 2531 2678 2651 2914 
Q 2772 3150 2772 3378 
Q 2772 3750 2511 3984 
Q 2250 4219 1831 4219 
Q 1534 4219 1204 4116 
Q 875 4013 500 3803 
L 500 4441 
Q 881 4594 1212 4672 
Q 1544 4750 1819 4750 
Q 2544 4750 2975 4387 
Q 3406 4025 3406 3419 
Q 3406 3131 3298 2873 
Q 3191 2616 2906 2266 
Q 2828 2175 2409 1742 
Q 1991 1309 1228 531 
z
" transform="scale(0.015625)"/>
       </defs>
       <use xlink:href="#DejaVuSans-32"/>
      </g>
     </g>
    </g>
    <g id="ytick_3">
     <g id="line2d_6">
      <g>
       <use xlink:href="#m339593afac" x="57.6" y="204.118491" style="stroke: #000000; stroke-width: 0.8"/>
      </g>
     </g>
     <g id="text_7">
      <!-- 4 -->
      <g transform="translate(44.2375 207.91771) scale(0.1 -0.1)">
       <defs>
        <path id="DejaVuSans-34" d="M 2419 4116 
L 825 1625 
L 2419 1625 
L 2419 4116 
z
M 2253 4666 
L 3047 4666 
L 3047 1625 
L 3713 1625 
L 3713 1100 
L 3047 1100 
L 3047 0 
L 2419 0 
L 2419 1100 
L 313 1100 
L 313 1709 
L 2253 4666 
z
" transform="scale(0.015625)"/>
       </defs>
       <use xlink:href="#DejaVuSans-34"/>
      </g>
     </g>
    </g>
    <g id="ytick_4">
     <g id="line2d_7">
      <g>
       <use xlink:href="#m339593afac" x="57.6" y="164.664503" style="stroke: #000000; stroke-width: 0.8"/>
      </g>
     </g>
     <g id="text_8">
      <!-- 6 -->
      <g transform="translate(44.2375 168.463722) scale(0.1 -0.1)">
       <defs>
        <path id="DejaVuSans-36" d="M 2113 2584 
Q 1688 2584 1439 2293 
Q 1191 2003 1191 1497 
Q 1191 994 1439 701 
Q 1688 409 2113 409 
Q 2538 409 2786 701 
Q 3034 994 3034 1497 
Q 3034 2003 2786 2293 
Q 2538 2584 2113 2584 
z
M 3366 4563 
L 3366 3988 
Q 3128 4100 2886 4159 
Q 2644 4219 2406 4219 
Q 1781 4219 1451 3797 
Q 1122 3375 1075 2522 
Q 1259 2794 1537 2939 
Q 1816 3084 2150 3084 
Q 2853 3084 3261 2657 
Q 3669 2231 3669 1497 
Q 3669 778 3244 343 
Q 2819 -91 2113 -91 
Q 1303 -91 875 529 
Q 447 1150 447 2328 
Q 447 3434 972 4092 
Q 1497 4750 2381 4750 
Q 2619 4750 2861 4703 
Q 3103 4656 3366 4563 
z
" transform="scale(0.015625)"/>
       </defs>
       <use xlink:href="#DejaVuSans-36"/>
      </g>
     </g>
    </g>
    <g id="ytick_5">
     <g id="line2d_8">
      <g>
       <use xlink:href="#m339593afac" x="57.6" y="125.210515" style="stroke: #000000; stroke-width: 0.8"/>
      </g>
     </g>
     <g id="text_9">
      <!-- 8 -->
      <g transform="translate(44.2375 129.009734) scale(0.1 -0.1)">
       <defs>
        <path id="DejaVuSans-38" d="M 2034 2216 
Q 1584 2216 1326 1975 
Q 1069 1734 1069 1313 
Q 1069 891 1326 650 
Q 1584 409 2034 409 
Q 2484 409 2743 651 
Q 3003 894 3003 1313 
Q 3003 1734 2745 1975 
Q 2488 2216 2034 2216 
z
M 1403 2484 
Q 997 2584 770 2862 
Q 544 3141 544 3541 
Q 544 4100 942 4425 
Q 1341 4750 2034 4750 
Q 2731 4750 3128 4425 
Q 3525 4100 3525 3541 
Q 3525 3141 3298 2862 
Q 3072 2584 2669 2484 
Q 3125 2378 3379 2068 
Q 3634 1759 3634 1313 
Q 3634 634 3220 271 
Q 2806 -91 2034 -91 
Q 1263 -91 848 271 
Q 434 634 434 1313 
Q 434 1759 690 2068 
Q 947 2378 1403 2484 
z
M 1172 3481 
Q 1172 3119 1398 2916 
Q 1625 2713 2034 2713 
Q 2441 2713 2670 2916 
Q 2900 3119 2900 3481 
Q 2900 3844 2670 4047 
Q 2441 4250 2034 4250 
Q 1625 4250 1398 4047 
Q 1172 3844 1172 3481 
z
" transform="scale(0.015625)"/>
       </defs>
       <use xlink:href="#DejaVuSans-38"/>
      </g>
     </g>
    </g>
    <g id="ytick_6">
     <g id="line2d_9">
      <g>
       <use xlink:href="#m339593afac" x="57.6" y="85.756528" style="stroke: #000000; stroke-width: 0.8"/>
      </g>
     </g>
     <g id="text_10">
      <!-- 10 -->
      <g transform="translate(37.875 89.555746) scale(0.1 -0.1)">
       <defs>
        <path id="DejaVuSans-31" d="M 794 531 
L 1825 531 
L 1825 4091 
L 703 3866 
L 703 4441 
L 1819 4666 
L 2450 4666 
L 2450 531 
L 3481 531 
L 3481 0 
L 794 0 
L 794 531 
z
" transform="scale(0.015625)"/>
       </defs>
       <use xlink:href="#DejaVuSans-31"/>
       <use xlink:href="#DejaVuSans-30" transform="translate(63.623047 0)"/>
      </g>
     </g>
    </g>
    <g id="ytick_7">
     <g id="line2d_10">
      <g>
       <use xlink:href="#m339593afac" x="57.6" y="46.30254" style="stroke: #000000; stroke-width: 0.8"/>
      </g>
     </g>
     <g id="text_11">
      <!-- 12 -->
      <g transform="translate(37.875 50.101759) scale(0.1 -0.1)">
       <use xlink:href="#DejaVuSans-31"/>
       <use xlink:href="#DejaVuSans-32" transform="translate(63.623047 0)"/>
      </g>
     </g>
    </g>
    <g id="text_12">
     <!-- Cell Count -->
     <g transform="translate(31.795312 200.311594) rotate(-90) scale(0.1 -0.1)">
      <defs>
       <path id="DejaVuSans-43" d="M 4122 4306 
L 4122 3641 
Q 3803 3938 3442 4084 
Q 3081 4231 2675 4231 
Q 1875 4231 1450 3742 
Q 1025 3253 1025 2328 
Q 1025 1406 1450 917 
Q 1875 428 2675 428 
Q 3081 428 3442 575 
Q 3803 722 4122 1019 
L 4122 359 
Q 3791 134 3420 21 
Q 3050 -91 2638 -91 
Q 1578 -91 968 557 
Q 359 1206 359 2328 
Q 359 3453 968 4101 
Q 1578 4750 2638 4750 
Q 3056 4750 3426 4639 
Q 3797 4528 4122 4306 
z
" transform="scale(0.015625)"/>
       <path id="DejaVuSans-65" d="M 3597 1894 
L 3597 1613 
L 953 1613 
Q 991 1019 1311 708 
Q 1631 397 2203 397 
Q 2534 397 2845 478 
Q 3156 559 3463 722 
L 3463 178 
Q 3153 47 2828 -22 
Q 2503 -91 2169 -91 
Q 1331 -91 842 396 
Q 353 884 353 1716 
Q 353 2575 817 3079 
Q 1281 3584 2069 3584 
Q 2775 3584 3186 3129 
Q 3597 2675 3597 1894 
z
M 3022 2063 
Q 3016 2534 2758 2815 
Q 2500 3097 2075 3097 
Q 1594 3097 1305 2825 
Q 1016 2553 972 2059 
L 3022 2063 
z
" transform="scale(0.015625)"/>
       <path id="DejaVuSans-6c" d="M 603 4863 
L 1178 4863 
L 1178 0 
L 603 0 
L 603 4863 
z
" transform="scale(0.015625)"/>
       <path id="DejaVuSans-20" transform="scale(0.015625)"/>
       <path id="DejaVuSans-6f" d="M 1959 3097 
Q 1497 3097 1228 2736 
Q 959 2375 959 1747 
Q 959 1119 1226 758 
Q 1494 397 1959 397 
Q 2419 397 2687 759 
Q 2956 1122 2956 1747 
Q 2956 2369 2687 2733 
Q 2419 3097 1959 3097 
z
M 1959 3584 
Q 2709 3584 3137 3096 
Q 3566 2609 3566 1747 
Q 3566 888 3137 398 
Q 2709 -91 1959 -91 
Q 1206 -91 779 398 
Q 353 888 353 1747 
Q 353 2609 779 3096 
Q 1206 3584 1959 3584 
z
" transform="scale(0.015625)"/>
       <path id="DejaVuSans-75" d="M 544 1381 
L 544 3500 
L 1119 3500 
L 1119 1403 
Q 1119 906 1312 657 
Q 1506 409 1894 409 
Q 2359 409 2629 706 
Q 2900 1003 2900 1516 
L 2900 3500 
L 3475 3500 
L 3475 0 
L 2900 0 
L 2900 538 
Q 2691 219 2414 64 
Q 2138 -91 1772 -91 
Q 1169 -91 856 284 
Q 544 659 544 1381 
z
M 1991 3584 
L 1991 3584 
z
" transform="scale(0.015625)"/>
       <path id="DejaVuSans-6e" d="M 3513 2113 
L 3513 0 
L 2938 0 
L 2938 2094 
Q 2938 2591 2744 2837 
Q 2550 3084 2163 3084 
Q 1697 3084 1428 2787 
Q 1159 2491 1159 1978 
L 1159 0 
L 581 0 
L 581 3500 
L 1159 3500 
L 1159 2956 
Q 1366 3272 1645 3428 
Q 1925 3584 2291 3584 
Q 2894 3584 3203 3211 
Q 3513 2838 3513 2113 
z
" transform="scale(0.015625)"/>
       <path id="DejaVuSans-74" d="M 1172 4494 
L 1172 3500 
L 2356 3500 
L 2356 3053 
L 1172 3053 
L 1172 1153 
Q 1172 725 1289 603 
Q 1406 481 1766 481 
L 2356 481 
L 2356 0 
L 1766 0 
Q 1100 0 847 248 
Q 594 497 594 1153 
L 594 3053 
L 172 3053 
L 172 3500 
L 594 3500 
L 594 4494 
L 1172 4494 
z
" transform="scale(0.015625)"/>
      </defs>
      <use xlink:href="#DejaVuSans-43"/>
      <use xlink:href="#DejaVuSans-65" transform="translate(69.824219 0)"/>
      <use xlink:href="#DejaVuSans-6c" transform="translate(131.347656 0)"/>
      <use xlink:href="#DejaVuSans-6c" transform="translate(159.130859 0)"/>
      <use xlink:href="#DejaVuSans-20" transform="translate(186.914062 0)"/>
      <use xlink:href="#DejaVuSans-43" transform="translate(218.701172 0)"/>
      <use xlink:href="#DejaVuSans-6f" transform="translate(288.525391 0)"/>
      <use xlink:href="#DejaVuSans-75" transform="translate(349.707031 0)"/>
      <use xlink:href="#DejaVuSans-6e" transform="translate(413.085938 0)"/>
      <use xlink:href="#DejaVuSans-74" transform="translate(476.464844 0)"/>
     </g>
    </g>
   </g>
   <g id="line2d_11">
    <path d="M 114.3075 243.572479 
L 114.3075 85.756528 
" clip-path="url(#pa8c15f5672)" style="fill: none; stroke: #595959; stroke-width: 1.875; stroke-linecap: square"/>
   </g>
   <g id="line2d_12">
    <path d="M 114.3075 184.391497 
L 114.3075 105.483521 
" clip-path="url(#pa8c15f5672)" style="fill: none; stroke: #595959; stroke-width: 5.625; stroke-linecap: square"/>
   </g>
   <g id="line2d_13">
    <path d="M 114.3075 164.664503 
" clip-path="url(#pa8c15f5672)" style="fill: none; stroke: #595959; stroke-width: 1.5; stroke-linecap: square"/>
    <defs>
     <path id="m242f5e12e9" d="M 2.34375 0 
L -2.34375 -0 
" style="stroke: #ffffff; stroke-width: 1.125"/>
    </defs>
    <g clip-path="url(#pa8c15f5672)">
     <use xlink:href="#m242f5e12e9" x="114.3075" y="164.664503" style="fill: #ffffff; stroke: #ffffff; stroke-width: 1.125"/>
    </g>
   </g>
   <g id="line2d_14">
    <path d="M 119.9325 263.299472 
L 119.9325 85.756528 
" clip-path="url(#pa8c15f5672)" style="fill: none; stroke: #595959; stroke-width: 1.875; stroke-linecap: square"/>
   </g>
   <g id="line2d_15">
    <path d="M 119.9325 204.118491 
L 119.9325 144.937509 
" clip-path="url(#pa8c15f5672)" style="fill: none; stroke: #595959; stroke-width: 5.625; stroke-linecap: square"/>
   </g>
   <g id="line2d_16">
    <path d="M 119.9325 184.391497 
" clip-path="url(#pa8c15f5672)" style="fill: none; stroke: #595959; stroke-width: 1.5; stroke-linecap: square"/>
    <g clip-path="url(#pa8c15f5672)">
     <use xlink:href="#m242f5e12e9" x="119.9325" y="184.391497" style="fill: #ffffff; stroke: #ffffff; stroke-width: 1.125"/>
    </g>
   </g>
   <g id="line2d_17">
    <path d="M 233.3475 263.299472 
L 233.3475 144.937509 
" clip-path="url(#pa8c15f5672)" style="fill: none; stroke: #595959; stroke-width: 1.875; stroke-linecap: square"/>
   </g>
   <g id="line2d_18">
    <path d="M 233.3475 204.118491 
L 233.3475 164.664503 
" clip-path="url(#pa8c15f5672)" style="fill: none; stroke: #595959; stroke-width: 5.625; stroke-linecap: square"/>
   </g>
   <g id="line2d_19">
    <path d="M 233.3475 204.118491 
" clip-path="url(#pa8c15f5672)" style="fill: none; stroke: #595959; stroke-width: 1.5; stroke-linecap: square"/>
    <g clip-path="url(#pa8c15f5672)">
     <use xlink:href="#m242f5e12e9" x="233.3475" y="204.118491" style="fill: #ffffff; stroke: #ffffff; stroke-width: 1.125"/>
    </g>
   </g>
   <g id="line2d_20">
    <path d="M 238.9725 243.572479 
L 238.9725 164.664503 
" clip-path="url(#pa8c15f5672)" style="fill: none; stroke: #595959; stroke-width: 1.875; stroke-linecap: square"/>
   </g>
   <g id="line2d_21">
    <path d="M 238.9725 223.845485 
L 238.9725 184.391497 
" clip-path="url(#pa8c15f5672)" style="fill: none; stroke: #595959; stroke-width: 5.625; stroke-linecap: square"/>
   </g>
   <g id="line2d_22">
    <path d="M 238.9725 204.118491 
" clip-path="url(#pa8c15f5672)" style="fill: none; stroke: #595959; stroke-width: 1.5; stroke-linecap: square"/>
    <g clip-path="url(#pa8c15f5672)">
     <use xlink:href="#m242f5e12e9" x="238.9725" y="204.118491" style="fill: #ffffff; stroke: #ffffff; stroke-width: 1.125"/>
    </g>
   </g>
   <g id="line2d_23">
    <path d="M 352.3875 243.572479 
L 352.3875 184.391497 
" clip-path="url(#pa8c15f5672)" style="fill: none; stroke: #595959; stroke-width: 1.875; stroke-linecap: square"/>
   </g>
   <g id="line2d_24">
    <path d="M 352.3875 223.845485 
L 352.3875 204.118491 
" clip-path="url(#pa8c15f5672)" style="fill: none; stroke: #595959; stroke-width: 5.625; stroke-linecap: square"/>
   </g>
   <g id="line2d_25">
    <path d="M 352.3875 204.118491 
" clip-path="url(#pa8c15f5672)" style="fill: none; stroke: #595959; stroke-width: 1.5; stroke-linecap: square"/>
    <g clip-path="url(#pa8c15f5672)">
     <use xlink:href="#m242f5e12e9" x="352.3875" y="204.118491" style="fill: #ffffff; stroke: #ffffff; stroke-width: 1.125"/>
    </g>
   </g>
   <g id="line2d_26">
    <path d="M 358.0125 263.299472 
L 358.0125 204.118491 
" clip-path="url(#pa8c15f5672)" style="fill: none; stroke: #595959; stroke-width: 1.875; stroke-linecap: square"/>
   </g>
   <g id="line2d_27">
    <path d="M 358.0125 243.572479 
L 358.0125 223.845485 
" clip-path="url(#pa8c15f5672)" style="fill: none; stroke: #595959; stroke-width: 5.625; stroke-linecap: square"/>
   </g>
   <g id="line2d_28">
    <path d="M 358.0125 223.845485 
" clip-path="url(#pa8c15f5672)" style="fill: none; stroke: #595959; stroke-width: 1.5; stroke-linecap: square"/>
    <g clip-path="url(#pa8c15f5672)">
     <use xlink:href="#m242f5e12e9" x="358.0125" y="223.845485" style="fill: #ffffff; stroke: #ffffff; stroke-width: 1.125"/>
    </g>
   </g>
   <g id="patch_5">
    <path d="M 57.6 307.584 
L 57.6 41.472 
" style="fill: none; stroke: #000000; stroke-width: 0.8; stroke-linejoin: miter; stroke-linecap: square"/>
   </g>
   <g id="patch_6">
    <path d="M 57.6 307.584 
L 414.72 307.584 
" style="fill: none; stroke: #000000; stroke-width: 0.8; stroke-linejoin: miter; stroke-linecap: square"/>
   </g>
   <g id="legend_1">
    <g id="patch_7">
     <path d="M 356.916875 93.506375 
L 407.72 93.506375 
Q 409.72 93.506375 409.72 91.506375 
L 409.72 48.472 
Q 409.72 46.472 407.72 46.472 
L 356.916875 46.472 
Q 354.916875 46.472 354.916875 48.472 
L 354.916875 91.506375 
Q 354.916875 93.506375 356.916875 93.506375 
z
" style="fill: #ffffff; opacity: 0.8; stroke: #cccccc; stroke-linejoin: miter"/>
    </g>
    <g id="text_13">
     <!-- pert -->
     <g transform="translate(372.052031 58.070438) scale(0.1 -0.1)">
      <defs>
       <path id="DejaVuSans-70" d="M 1159 525 
L 1159 -1331 
L 581 -1331 
L 581 3500 
L 1159 3500 
L 1159 2969 
Q 1341 3281 1617 3432 
Q 1894 3584 2278 3584 
Q 2916 3584 3314 3078 
Q 3713 2572 3713 1747 
Q 3713 922 3314 415 
Q 2916 -91 2278 -91 
Q 1894 -91 1617 61 
Q 1341 213 1159 525 
z
M 3116 1747 
Q 3116 2381 2855 2742 
Q 2594 3103 2138 3103 
Q 1681 3103 1420 2742 
Q 1159 2381 1159 1747 
Q 1159 1113 1420 752 
Q 1681 391 2138 391 
Q 2594 391 2855 752 
Q 3116 1113 3116 1747 
z
" transform="scale(0.015625)"/>
       <path id="DejaVuSans-72" d="M 2631 2963 
Q 2534 3019 2420 3045 
Q 2306 3072 2169 3072 
Q 1681 3072 1420 2755 
Q 1159 2438 1159 1844 
L 1159 0 
L 581 0 
L 581 3500 
L 1159 3500 
L 1159 2956 
Q 1341 3275 1631 3429 
Q 1922 3584 2338 3584 
Q 2397 3584 2469 3576 
Q 2541 3569 2628 3553 
L 2631 2963 
z
" transform="scale(0.015625)"/>
      </defs>
      <use xlink:href="#DejaVuSans-70"/>
      <use xlink:href="#DejaVuSans-65" transform="translate(63.476562 0)"/>
      <use xlink:href="#DejaVuSans-72" transform="translate(125 0)"/>
      <use xlink:href="#DejaVuSans-74" transform="translate(166.113281 0)"/>
     </g>
    </g>
    <g id="patch_8">
     <path d="M 358.916875 72.748563 
L 378.916875 72.748563 
L 378.916875 65.748563 
L 358.916875 65.748563 
z
" style="fill: #72b6a1; stroke: #595959; stroke-width: 1.25; stroke-linejoin: miter"/>
    </g>
    <g id="text_14">
     <!-- nha -->
     <g transform="translate(386.916875 72.748563) scale(0.1 -0.1)">
      <defs>
       <path id="DejaVuSans-68" d="M 3513 2113 
L 3513 0 
L 2938 0 
L 2938 2094 
Q 2938 2591 2744 2837 
Q 2550 3084 2163 3084 
Q 1697 3084 1428 2787 
Q 1159 2491 1159 1978 
L 1159 0 
L 581 0 
L 581 4863 
L 1159 4863 
L 1159 2956 
Q 1366 3272 1645 3428 
Q 1925 3584 2291 3584 
Q 2894 3584 3203 3211 
Q 3513 2838 3513 2113 
z
" transform="scale(0.015625)"/>
      </defs>
      <use xlink:href="#DejaVuSans-6e"/>
      <use xlink:href="#DejaVuSans-68" transform="translate(63.378906 0)"/>
      <use xlink:href="#DejaVuSans-61" transform="translate(126.757812 0)"/>
     </g>
    </g>
    <g id="patch_9">
     <path d="M 358.916875 87.426688 
L 378.916875 87.426688 
L 378.916875 80.426688 
L 358.916875 80.426688 
z
" style="fill: #e99675; stroke: #595959; stroke-width: 1.25; stroke-linejoin: miter"/>
    </g>
    <g id="text_15">
     <!-- vpa -->
     <g transform="translate(386.916875 87.426688) scale(0.1 -0.1)">
      <defs>
       <path id="DejaVuSans-76" d="M 191 3500 
L 800 3500 
L 1894 563 
L 2988 3500 
L 3597 3500 
L 2284 0 
L 1503 0 
L 191 3500 
z
" transform="scale(0.015625)"/>
      </defs>
      <use xlink:href="#DejaVuSans-76"/>
      <use xlink:href="#DejaVuSans-70" transform="translate(59.179688 0)"/>
      <use xlink:href="#DejaVuSans-61" transform="translate(122.65625 0)"/>
     </g>
    </g>
   </g>
  </g>
 </g>
 <defs>
  <clipPath id="pa8c15f5672">
   <rect x="57.6" y="41.472" width="357.12" height="266.112"/>
  </clipPath>
 </defs>
</svg>
